<svg width="21" height="21" viewBox="0 0 21 21" fill="none" xmlns="http://www.w3.org/2000/svg">
<path fill-rule="evenodd" clip-rule="evenodd" d="M6.68549 17.481C7.03716 17.481 7.323 17.7668 7.323 18.1185C7.323 18.4701 7.03716 18.7551 6.68549 18.7551C6.33383 18.7551 6.04883 18.4701 6.04883 18.1185C6.04883 17.7668 6.33383 17.481 6.68549 17.481Z" stroke="white" stroke-linecap="round" stroke-linejoin="round"/>
<path fill-rule="evenodd" clip-rule="evenodd" d="M16.0623 17.481C16.414 17.481 16.6998 17.7668 16.6998 18.1185C16.6998 18.4701 16.414 18.7551 16.0623 18.7551C15.7106 18.7551 15.4248 18.4701 15.4248 18.1185C15.4248 17.7668 15.7106 17.481 16.0623 17.481Z" stroke="white" stroke-linecap="round" stroke-linejoin="round"/>
<path d="M2.79199 3.67236L4.52533 3.97236L5.32783 13.5332C5.39283 14.3124 6.04366 14.9107 6.82533 14.9107H15.9187C16.6653 14.9107 17.2987 14.3624 17.4062 13.6224L18.197 8.15736C18.2945 7.4832 17.772 6.87986 17.0912 6.87986H4.80366" stroke="white" stroke-linecap="round" stroke-linejoin="round"/>
<path d="M12.2715 9.95996H14.5823" stroke="white" stroke-linecap="round" stroke-linejoin="round"/>
</svg>
