<?xml version="1.0" encoding="utf-8"?>
<!-- Generator: Adobe Illustrator 22.0.1, SVG Export Plug-In . SVG Version: 6.00 Build 0)  -->
<svg version="1.1" id="Layer_1" xmlns="http://www.w3.org/2000/svg" xmlns:xlink="http://www.w3.org/1999/xlink" x="0px" y="0px"
	 viewBox="0 0 512 512" style="enable-background:new 0 0 512 512;" xml:space="preserve">
<style type="text/css">
	.st0{fill:#055192;}
</style>
<g>
	<g>
		<path class="st0" d="M460.2,402.1h-78.9V325c15.1-17.1,24.2-39.3,24.2-63.6c0-53.6-44.4-97.1-99-97.1s-99,43.6-99,97.1
			c0,24.3,9.1,46.5,24.2,63.6v77.1H51.8V51.8h408.3L460.2,402.1L460.2,402.1L460.2,402.1z M306.5,412.2l-33.7,25.9v-85.3
			c10.5,3.7,21.9,5.8,33.7,5.8c11.8,0,23.2-2,33.7-5.8v85.3L306.5,412.2L306.5,412.2z M306.5,317.8c-32.1,0-58.2-25.3-58.2-56.4
			s26.1-56.4,58.2-56.4s58.2,25.3,58.2,56.4S338.6,317.8,306.5,317.8z M480.6,11H31.4C20.1,11,11,20.1,11,31.4v391.1
			c0,11.3,9.1,20.4,20.4,20.4h200.3V481c0,16.5,19,25.9,32.1,15.8l42.7-32.8l42.7,32.8c13.1,10.1,32.1,0.7,32.1-15.8v-38.1h99.3
			c11.3,0,20.4-9.1,20.4-20.4V31.4C501,20.1,491.9,11,480.6,11L480.6,11z"/>
		<path class="st0" d="M151.1,144.9h209.7c11.3,0,20.4-9.1,20.4-20.4s-9.1-20.4-20.4-20.4H151.1c-11.3,0-20.4,9.1-20.4,20.4
			C130.7,135.7,139.9,144.9,151.1,144.9L151.1,144.9z"/>
	</g>
</g>
</svg>
