<?xml version="1.0" encoding="utf-8"?>
<!-- Generator: Adobe Illustrator 22.0.1, SVG Export Plug-In . SVG Version: 6.00 Build 0)  -->
<svg version="1.1" id="Layer_1" xmlns="http://www.w3.org/2000/svg" xmlns:xlink="http://www.w3.org/1999/xlink" x="0px" y="0px"
	 viewBox="0 0 360.7 360.7" style="enable-background:new 0 0 360.7 360.7;" xml:space="preserve">
<style type="text/css">
	.st0{fill:#055192;}
</style>
<g>
	<path class="st0" d="M192.7,264c0-63.1,77.4-94.9,121.7-50.5c21.4,21.4,27.6,52.1,15.3,79.9c-20.2,45.8-80.5,56.9-115.9,21.5
		C202.1,303.1,192.7,287.1,192.7,264L192.7,264z M168,262.4c0,7.2,0.7,20.5,3.1,25.5H24.8V72.8h83.6v43.3c0,5.7,5.8,10.8,13.9,10.8
		h68.1c4.1,0,7.2-0.8,9.5-2.9c1.9-1.7,4.4-4.7,4.4-8V72.8H288v98.3c-5-2.4-18.4-3.1-25.5-3.1c-31.3,0-59,17-76.8,40.9
		C176,221.8,168,243.9,168,262.4L168,262.4z M132.4,72.8h48v29.4h-48V72.8L132.4,72.8z M141.7,24.8h29.4c0.1,3.6,4.3,18.3,5.4,23.2
		h-40.3c0.9-3.8,1.8-7.1,2.8-11.1C139.9,33.2,141.6,28.4,141.7,24.8L141.7,24.8z M196.6,24.8h49.5c2.4,0,22.9,21.6,24,23.2H202
		C201.2,46.2,196.7,27.3,196.6,24.8L196.6,24.8z M110.7,48H42.6c1.1-1.7,21.6-23.2,24-23.2h49.5C116.1,27.3,111.5,46.3,110.7,48
		L110.7,48z M0,60.4v240c0,16.5,21.2,12.4,35.6,12.4c48.5,0,97,0,145.5,0c5.9,8.8,5.1,9.4,13.7,18c19.9,19.8,41.2,30,73,30
		c14.7,0,27-4.9,37.3-9.2l14.7-8.5c2.2-1.5,4.7-3.2,6.6-5c1.1-1,1.6-1.7,2.7-2.7c1.5-1.4,2.2-1.5,3.4-2.8
		c18.4-18.4,28.1-43.3,28.1-70.2c0-20-7.3-36.5-14.9-49.3c-5.6-9.4-14.7-18.6-23.2-25.6c-3.2-2.6-6.6-4.2-9.8-6.4
		c0-20.1,0-40.3,0-60.4c0-19.6,0.9-41.1,0-60.4c-0.2-5.5-1.9-6.9-4.9-9.9L262.6,5.2c-2.8-2.9-4.8-5.2-10.3-5.2h-192
		c-7.1,0-11.2,6.2-17.6,12.6L5.2,50.1C2.3,53,0,54.9,0,60.4L0,60.4z"/>
	<path class="st0" d="M55,234.6h58.8v23.2H55V234.6L55,234.6z M30.2,222.2v49.5c0,4.8,6,10.8,10.8,10.8h86.7c4.8,0,10.8-6,10.8-10.8
		v-49.5c0-7.3-5.9-12.4-13.2-12.4h-82C36.1,209.8,30.2,214.8,30.2,222.2L30.2,222.2z"/>
	<path class="st0" d="M255.5,267.8c-1.9-2.9-17.3-20.1-24.8-20.1c-7.2,0-12.4,5.4-12.4,13.9c0,5.5,12.4,15.9,16.5,19.9l13.9,13.9
		c12.5,10.2,24.8-12.3,36.4-22c3-2.5,4.2-3.5,6.9-6.2l6.6-7.4c7.5-7.8,11.8-8.5,11.8-18.4c0-6.7-8.1-11.4-14.2-10.3
		c-6.7,1.2-10.6,6.9-14.7,10.9L255.5,267.8L255.5,267.8z"/>
</g>
</svg>
